HIERARCHY
ROOT Hips
{
	OFFSET 0.00000 0.00000 0.00000
	CHANNELS 6 Xposition Yposition Zposition Zrotation Yrotation Xrotation 
	JOINT LHipJoint
	{
		OFFSET 0 0 0
		CHANNELS 3 Zrotation Yrotation Xrotation
		JOINT LeftUpLeg
		{
			OFFSET 1.76014 -1.80163 0.38499
			CHANNELS 3 Zrotation Yrotation Xrotation
			JOINT LeftLeg
			{
				OFFSET 2.46817 -6.78126 0.00000
				CHANNELS 3 Zrotation Yrotation Xrotation
				JOINT LeftFoot
				{
					OFFSET 2.79348 -7.67503 0.00000
					CHANNELS 3 Zrotation Yrotation Xrotation
					JOINT LeftToeBase
					{
						OFFSET 0.09421 -0.25885 1.91403
						CHANNELS 3 Zrotation Yrotation Xrotation
						End Site
						{
							OFFSET 0.00000 -0.00000 0.97975
						}
					}
				}
			}
		}
	}
	JOINT RHipJoint
	{
		OFFSET 0 0 0
		CHANNELS 3 Zrotation Yrotation Xrotation
		JOINT RightUpLeg
		{
			OFFSET -1.77926 -1.80163 0.38499
			CHANNELS 3 Zrotation Yrotation Xrotation
			JOINT RightLeg
			{
				OFFSET -2.51996 -6.92353 0.00000
				CHANNELS 3 Zrotation Yrotation Xrotation
				JOINT RightFoot
				{
					OFFSET -2.76109 -7.58603 0.00000
					CHANNELS 3 Zrotation Yrotation Xrotation
					JOINT RightToeBase
					{
						OFFSET -0.08067 -0.22163 1.86812
						CHANNELS 3 Zrotation Yrotation Xrotation
						End Site
						{
							OFFSET -0.00000 -0.00000 0.95558
						}
					}
				}
			}
		}
	}
	JOINT LowerBack
	{
		OFFSET 0 0 0
		CHANNELS 3 Zrotation Yrotation Xrotation
		JOINT Spine
		{
			OFFSET 0.05537 1.92033 -0.03713
			CHANNELS 3 Zrotation Yrotation Xrotation
			JOINT Spine1
			{
				OFFSET 0.04452 1.90073 0.10860
				CHANNELS 3 Zrotation Yrotation Xrotation
				JOINT Neck
				{
					OFFSET 0 0 0
					CHANNELS 3 Zrotation Yrotation Xrotation
					JOINT Neck1
					{
						OFFSET 0.00903 1.74649 0.02074
						CHANNELS 3 Zrotation Yrotation Xrotation
						JOINT Head
						{
							OFFSET -0.08608 1.67844 -0.12081
							CHANNELS 3 Zrotation Yrotation Xrotation
							End Site
							{
								OFFSET -0.03521 1.83380 -0.05059
							}
						}
					}
				}
				JOINT LeftShoulder
				{
					OFFSET 0 0 0
					CHANNELS 3 Zrotation Yrotation Xrotation
					JOINT LeftArm
					{
						OFFSET 3.28197 0.84325 -0.19106
						CHANNELS 3 Zrotation Yrotation Xrotation
						JOINT LeftForeArm
						{
							OFFSET 5.24318 -0.00000 -0.00000
							CHANNELS 3 Zrotation Yrotation Xrotation
							JOINT LeftHand
							{
								OFFSET 2.98999 -0.00000 0.00000
								CHANNELS 3 Zrotation Yrotation Xrotation
								JOINT LeftFingerBase
								{
									OFFSET 0 0 0
									CHANNELS 3 Zrotation Yrotation Xrotation
									JOINT LeftHandIndex1
									{
										OFFSET 0.72674 -0.00000 0.00000
										CHANNELS 3 Zrotation Yrotation Xrotation
										End Site
										{
											OFFSET 0.58592 -0.00000 0.00000
										}
									}
								}
								JOINT LThumb
								{
									OFFSET 0 0 0
									CHANNELS 3 Zrotation Yrotation Xrotation
									End Site
									{
										OFFSET 0.59487 -0.00000 0.59487
									}
								}
							}
						}
					}
				}
				JOINT RightShoulder
				{
					OFFSET 0 0 0
					CHANNELS 3 Zrotation Yrotation Xrotation
					JOINT RightArm
					{
						OFFSET -3.30963 0.78377 0.14264
						CHANNELS 3 Zrotation Yrotation Xrotation
						JOINT RightForeArm
						{
							OFFSET -5.37045 -0.00000 0.00000
							CHANNELS 3 Zrotation Yrotation Xrotation
							JOINT RightHand
							{
								OFFSET -2.92792 -0.00000 0.00000
								CHANNELS 3 Zrotation Yrotation Xrotation
								JOINT RightFingerBase
								{
									OFFSET 0 0 0
									CHANNELS 3 Zrotation Yrotation Xrotation
									JOINT RightHandIndex1
									{
										OFFSET -0.78450 -0.00000 0.00000
										CHANNELS 3 Zrotation Yrotation Xrotation
										End Site
										{
											OFFSET -0.63248 -0.00000 0.00000
										}
									}
								}
								JOINT RThumb
								{
									OFFSET 0 0 0
									CHANNELS 3 Zrotation Yrotation Xrotation
									End Site
									{
										OFFSET -0.64214 -0.00000 0.64214
									}
								}
							}
						}
					}
				}
			}
		}
	}
}
MOTION
Frames: 15
Frame Time: .0083333
0.7858 17.3031 -1.4239 7.8696 -17.1624 27.1050 0.0000 0.0000 0.0000 -27.5876 -4.5137 -53.4550 3.8048 11.8960 35.3650 0.2127 0.7483 -9.0163 1.0014 -6.3679 -17.8556 0.0000 0.0000 0.0000 -0.5978 15.4547 -60.2615 -4.5499 -12.8583 38.8403 -0.0269 1.0356 -2.9093 -0.8830 5.9902 -16.7561 1.8011 -2.7812 15.5594 8.4394 -3.6264 11.1300 8.4936 -2.1366 3.7329 -3.2524 9.5510 10.4322 -3.6773 12.3612 14.7412 -0.7164 5.7681 3.1056 0.0000 0.0000 0.0000 170.5850 -81.1249 -171.2300 14.4686 -23.4006 -3.0117 -0.0000 -0.0000 8.5405 -4.2593 19.9582 -1.4562 -7.1250 0.0000 -0.0000 -30.8304 47.3357 -1.9566 0.0000 0.0000 0.0000 69.2950 46.8456 27.0424 -17.6499 27.7065 -4.3852 0.0000 0.0000 30.8770 -3.3207 8.2777 -0.4786 7.1250 -0.0000 -0.0000 16.8987 -21.7927 9.8438
0.7880 17.2992 -1.4227 7.8585 -17.2621 27.1347 0.0000 0.0000 0.0000 -27.6166 -4.4625 -53.5400 3.8164 11.9120 35.4213 0.2150 0.7739 -9.0756 0.9720 -6.2765 -17.5887 0.0000 0.0000 0.0000 -0.6433 15.5317 -60.3157 -4.5519 -12.8607 38.8491 -0.0266 1.0388 -2.8941 -0.9815 6.3064 -17.6762 1.9048 -2.7722 15.5730 8.4284 -3.6027 11.1290 8.4189 -2.1177 3.7131 -3.2538 9.5688 10.5182 -3.5344 12.3619 14.7100 -0.6763 5.7726 3.0687 -0.0000 -0.0000 0.0000 171.3012 -81.1296 -171.4040 14.5199 -23.4731 -3.0321 -0.0000 -0.0000 8.3756 -4.2029 20.0178 -1.4410 -7.1250 0.0000 -0.0000 -30.8137 47.3949 -2.0046 -0.0000 -0.0000 0.0000 69.2989 46.8769 27.0052 -17.6686 27.7307 -4.3939 0.0000 0.0000 30.9347 -3.3276 8.2501 -0.4780 7.1250 -0.0000 -0.0000 16.8969 -21.8189 9.8320
0.7904 17.2973 -1.4223 7.8731 -17.3617 27.1362 0.0000 0.0000 0.0000 -27.7001 -4.3672 -53.6176 3.8286 11.9287 35.4802 0.2203 0.7050 -9.1493 0.8964 -6.0342 -16.8838 0.0000 0.0000 0.0000 -0.7328 15.6204 -60.3608 -4.5609 -12.8715 38.8894 -0.0268 1.0005 -2.9069 -1.0182 6.4195 -18.0065 2.0511 -2.7597 15.5870 8.3643 -3.5706 11.1503 8.2586 -2.0896 3.7088 -3.1446 9.5750 10.7234 -3.4476 12.3483 14.4999 -0.6811 5.7815 2.9606 0.0000 -0.0000 0.0000 171.9801 -81.1149 -171.4345 14.5773 -23.5540 -3.0550 -0.0000 -0.0000 8.1293 -4.2671 19.9735 -1.4600 -7.1250 0.0000 -0.0000 -30.8453 47.3478 -1.9679 0.0000 -0.0000 0.0000 69.3747 46.8616 26.7759 -17.6522 27.7096 -4.3863 0.0000 0.0000 31.2044 -3.5453 8.4729 -0.5230 7.1250 -0.0000 -0.0000 16.7202 -21.6023 9.8064
0.7936 17.2940 -1.4213 7.9268 -17.4470 27.1607 0.0000 0.0000 0.0000 -27.7958 -4.3432 -53.7045 3.8442 11.9502 35.5560 0.2235 0.6950 -9.2099 0.8517 -5.8858 -16.4535 0.0000 0.0000 0.0000 -0.8719 15.6747 -60.4541 -4.5758 -12.8896 38.9564 -0.0272 0.9507 -2.9286 -0.9336 6.1548 -17.2342 2.1585 -2.7475 15.5604 8.3228 -3.5452 11.1584 8.1450 -2.0681 3.7171 -3.0440 9.5628 10.9909 -3.5082 12.3181 14.1785 -0.7364 5.7839 2.8152 -0.0000 0.0000 0.0000 172.6151 -81.1008 -171.3799 14.6763 -23.6933 -3.0947 -0.0000 -0.0000 7.8907 -4.3025 20.0289 -1.4760 -7.1250 0.0000 -0.0000 -30.9056 47.3909 -2.0084 -0.0000 0.0000 0.0000 69.3601 46.8432 26.4880 -17.5831 27.6200 -4.3542 0.0000 0.0000 31.6541 -4.1517 8.9383 -0.6462 7.1250 -0.0000 -0.0000 16.2479 -21.1450 9.6820
0.7967 17.2912 -1.4205 8.0373 -17.5070 27.1880 0.0000 0.0000 0.0000 -27.9469 -4.3653 -53.7980 3.8598 11.9715 35.6312 0.2236 0.7328 -9.2278 0.9293 -6.1410 -17.1942 0.0000 0.0000 0.0000 -1.0289 15.6363 -60.5943 -4.5945 -12.9121 39.0402 -0.0273 0.9858 -2.9355 -0.8196 5.7765 -16.1372 2.1941 -2.7448 15.5257 8.2971 -3.5392 11.1523 8.0927 -2.0611 3.7228 -2.8703 9.5150 11.0663 -3.6380 12.2755 14.1159 -0.8084 5.7720 2.8016 0.0000 -0.0000 0.0000 173.3980 -81.0824 -171.4902 14.8263 -23.9036 -3.1552 -0.0000 -0.0000 7.7195 -4.3509 20.2338 -1.5073 -7.1250 0.0000 -0.0000 -31.0577 47.5612 -2.1630 0.0000 -0.0000 0.0000 69.2765 46.8576 26.3562 -17.5843 27.6216 -4.3548 0.0000 0.0000 31.7236 -4.4973 9.1958 -0.7202 7.1250 -0.0000 -0.0000 15.9812 -20.8903 9.6062
0.7997 17.2857 -1.4181 8.0101 -17.5116 27.2185 0.0000 0.0000 0.0000 -27.9072 -4.4026 -53.8680 3.8763 11.9939 35.7104 0.2234 0.7715 -9.2418 0.9725 -6.2782 -17.5939 0.0000 0.0000 0.0000 -1.0204 15.6288 -60.6629 -4.6117 -12.9327 39.1170 -0.0277 1.0358 -2.9553 -0.7632 5.5791 -15.5680 2.4138 -2.7631 15.5097 8.2577 -3.5407 11.1698 7.9206 -2.0466 3.7330 -2.6581 9.4615 11.0385 -3.5885 12.2221 14.1678 -0.8225 5.7537 2.8328 -0.0000 0.0000 0.0000 174.3334 -81.0721 -171.7522 14.9986 -24.1441 -3.2254 -0.0000 -0.0000 7.5856 -4.3763 20.4442 -1.5312 -7.1250 0.0000 -0.0000 -31.1941 47.7392 -2.3241 -0.0000 0.0000 0.0000 69.3335 46.8414 26.2772 -17.6820 27.7480 -4.4002 0.0000 0.0000 31.5887 -4.4993 9.1877 -0.7198 7.1250 -0.0000 -0.0000 15.9807 -20.8980 9.6029
0.8020 17.2802 -1.4156 8.0480 -17.6214 27.2293 0.0000 0.0000 0.0000 -27.9739 -4.3729 -53.9500 3.8921 12.0155 35.7867 0.2280 0.7030 -9.3027 0.8920 -6.0198 -16.8420 0.0000 0.0000 0.0000 -1.1114 15.6563 -60.7676 -4.6300 -12.9546 39.1986 -0.0276 1.1263 -2.9474 -0.7609 5.5706 -15.5434 2.4604 -2.7552 15.5276 8.2212 -3.5253 11.1830 7.8519 -2.0345 3.7298 -2.5581 9.4684 10.9977 -3.4823 12.2323 14.1931 -0.8019 5.7633 2.8463 0.0000 0.0000 0.0000 175.2153 -81.1136 -172.0265 15.1343 -24.3329 -3.2811 -0.0000 -0.0000 7.2832 -4.1021 20.5623 -1.4429 -7.1250 0.0000 -0.0000 -31.0216 47.8793 -2.4256 0.0000 0.0000 0.0000 69.4520 46.8496 26.1117 -17.7299 27.8099 -4.4225 0.0000 0.0000 31.7396 -4.4636 9.2365 -0.7179 7.1250 -0.0000 -0.0000 16.0008 -20.8517 9.6336
0.8040 17.2788 -1.4151 8.0917 -17.7160 27.2439 0.0000 0.0000 0.0000 -28.0714 -4.3210 -54.0404 3.9075 12.0363 35.8604 0.2312 0.6711 -9.3512 0.8772 -5.9711 -16.7006 0.0000 0.0000 0.0000 -1.2142 15.6981 -60.8566 -4.6452 -12.9728 39.2666 -0.0280 1.1753 -2.9732 -0.8163 5.7652 -16.1046 2.4796 -2.7380 15.5743 8.2073 -3.4981 11.1894 7.8247 -2.0191 3.7063 -2.4721 9.4669 11.0172 -3.4225 12.2295 14.1575 -0.7982 5.7678 2.8314 -0.0000 -0.0000 0.0000 176.0518 -81.1141 -172.2844 15.2633 -24.5116 -3.3344 -0.0000 -0.0000 6.9322 -3.8809 20.5670 -1.3652 -7.1250 0.0000 -0.0000 -30.8325 47.9143 -2.4368 -0.0000 -0.0000 0.0000 69.4663 46.8664 25.9677 -17.7819 27.8770 -4.4468 0.0000 0.0000 31.7083 -4.7731 9.4329 -0.7840 7.1250 -0.0000 -0.0000 15.7665 -20.6556 9.5540
0.8065 17.2744 -1.4143 8.1661 -17.7891 27.2045 0.0000 0.0000 0.0000 -28.1722 -4.3156 -54.0264 3.9166 12.0485 35.9039 0.2322 0.7106 -9.3887 0.9060 -6.0658 -16.9755 0.0000 0.0000 0.0000 -1.3232 15.7088 -60.8873 -4.6563 -12.9860 39.3159 -0.0278 1.1908 -2.9634 -0.8972 6.0370 -16.8918 2.5148 -2.7244 15.6583 8.1928 -3.4734 11.2227 7.7899 -2.0046 3.6925 -2.3767 9.4453 11.1249 -3.4407 12.1997 13.9803 -0.8278 5.7637 2.7591 -0.0000 0.0000 0.0000 176.6670 -81.0447 -172.6086 15.3655 -24.6529 -3.3769 -0.0000 -0.0000 6.9680 -4.0562 20.2910 -1.4087 -7.1250 0.0000 -0.0000 -30.8341 47.6514 -2.2190 -0.0000 0.0000 0.0000 69.3666 46.9114 25.8097 -17.8689 27.9889 -4.4875 0.0000 0.0000 31.4513 -5.1137 9.4362 -0.8406 7.1250 -0.0000 -0.0000 15.5288 -20.6444 9.4027
0.8093 17.2691 -1.4139 8.2052 -17.8096 27.2604 0.0000 0.0000 0.0000 -28.1600 -4.4506 -54.0637 3.9195 12.0525 35.9180 0.2289 0.8645 -9.3940 0.9121 -6.0854 -17.0325 0.0000 0.0000 0.0000 -1.4189 15.7153 -60.9887 -4.6609 -12.9914 39.3362 -0.0274 1.1523 -2.9377 -0.8644 5.9283 -16.5765 2.6829 -2.7279 15.6692 8.1467 -3.4568 11.2221 7.6401 -1.9830 3.6694 -2.2320 9.4317 11.2537 -3.4225 12.1802 13.7839 -0.8551 5.7679 2.6775 -0.0000 -0.0000 0.0000 177.5132 -80.9824 -173.1582 15.4868 -24.8198 -3.4277 -0.0000 -0.0000 7.1505 -4.2865 20.0149 -1.4695 -7.1250 0.0000 -0.0000 -30.8842 47.3810 -1.9985 -0.0000 -0.0000 0.0000 69.3787 46.8694 25.6442 -17.9841 28.1367 -4.5417 0.0000 0.0000 31.2043 -4.9542 9.2131 -0.7951 7.1250 -0.0000 -0.0000 15.6606 -20.8637 9.4079
0.8127 17.2724 -1.4152 8.2249 -17.8465 27.3437 0.0000 0.0000 0.0000 -28.2117 -4.4764 -54.1529 3.9162 12.0480 35.9021 0.2231 0.9364 -9.3126 0.9717 -6.2757 -17.5865 0.0000 0.0000 0.0000 -1.4972 15.7354 -61.0938 -4.6619 -12.9927 39.3411 -0.0278 1.1517 -2.9591 -0.8214 5.7829 -16.1557 2.8882 -2.7345 15.6658 8.0706 -3.4397 11.2113 7.4349 -1.9569 3.6375 -2.0845 9.4011 11.3189 -3.3422 12.1394 13.6653 -0.8583 5.7590 2.6283 0.0000 0.0000 0.0000 178.3045 -80.9694 -173.3011 15.6143 -24.9949 -3.4814 -0.0000 -0.0000 6.9835 -4.1377 19.8504 -1.4072 -7.1250 0.0000 -0.0000 -30.6684 47.2590 -1.8809 0.0000 0.0000 0.0000 69.4599 46.7813 25.4703 -18.1176 28.3075 -4.6049 0.0000 0.0000 31.0769 -4.6487 9.0262 -0.7309 7.1250 -0.0000 -0.0000 15.8919 -21.0507 9.4879
0.8158 17.2748 -1.4163 8.2862 -17.9079 27.3538 0.0000 0.0000 0.0000 -28.3697 -4.3900 -54.1873 3.9097 12.0392 35.8709 0.2237 0.8650 -9.2920 0.9957 -6.3503 -17.8042 0.0000 0.0000 0.0000 -1.5859 15.7352 -61.1284 -4.6558 -12.9854 39.3137 -0.0280 1.1619 -2.9719 -0.8589 5.9099 -16.5232 3.0113 -2.7352 15.7042 7.9923 -3.4255 11.2448 7.2774 -1.9388 3.6384 -1.9271 9.3934 11.3361 -3.3115 12.1367 13.5155 -0.8773 5.7692 2.5813 -0.0000 -0.0000 0.0000 178.7750 -80.9732 -173.0030 15.7441 -25.1725 -3.5364 -0.0000 -0.0000 6.6822 -3.7373 19.6408 -1.2578 -7.1250 0.0000 -0.0000 -30.2128 47.1312 -1.7436 -0.0000 -0.0000 0.0000 69.4801 46.7773 25.2903 -18.2447 28.4694 -4.6653 0.0000 0.0000 31.0239 -4.5150 8.9816 -0.7063 7.1250 -0.0000 -0.0000 15.9897 -21.0964 9.5338
0.8200 17.2722 -1.4166 8.3719 -17.9429 27.3974 0.0000 0.0000 0.0000 -28.5120 -4.3759 -54.2519 3.8974 12.0226 35.8120 0.2248 0.7914 -9.2784 1.0014 -6.3681 -17.8564 0.0000 0.0000 0.0000 -1.6878 15.6761 -61.2147 -4.6479 -12.9759 39.2784 -0.0271 1.2121 -2.9274 -0.9020 6.0525 -16.9367 3.1149 -2.7339 15.7409 7.9460 -3.4067 11.2337 7.1663 -1.9197 3.5943 -1.7804 9.3843 11.3464 -3.3217 12.1372 13.4409 -0.9054 5.7779 2.5641 0.0000 -0.0000 0.0000 179.3940 -80.9529 -172.7768 15.9390 -25.4378 -3.6197 -0.0000 -0.0000 6.3065 -3.2973 19.8357 -1.1199 -7.1250 0.0000 -0.0000 -29.9350 47.3605 -1.9086 0.0000 -0.0000 0.0000 69.4603 46.7601 25.0373 -18.3192 28.5639 -4.7009 0.0000 0.0000 31.0540 -4.7362 9.1792 -0.7572 7.1250 -0.0000 -0.0000 15.8161 -20.9012 9.4948
0.8254 17.2732 -1.4186 8.2511 -17.8755 27.5249 0.0000 0.0000 0.0000 -28.4700 -4.2717 -54.4259 3.8885 12.0105 35.7693 0.2259 0.5515 -9.1939 0.9827 -6.3100 -17.6866 0.0000 0.0000 0.0000 -1.5483 15.6413 -61.2974 -4.6406 -12.9673 39.2462 -0.0270 1.2239 -2.9190 -0.9132 6.0892 -17.0435 3.4857 -2.7465 15.7729 7.9365 -3.3746 11.2083 6.9415 -1.8798 3.5243 -1.6671 9.3355 11.4495 -3.2901 12.0733 13.3304 -0.9200 5.7556 2.5130 -0.0000 -0.0000 0.0000 -179.7250 -80.8837 -172.8636 16.1733 -25.7551 -3.7209 -0.0000 -0.0000 5.8631 -2.9777 20.2910 -1.0334 -7.1250 0.0000 -0.0000 -29.8984 47.8008 -2.2582 -0.0000 -0.0000 0.0000 69.4499 46.7119 24.7160 -18.3670 28.6246 -4.7238 0.0000 0.0000 31.0591 -5.0774 9.4561 -0.8363 7.1250 -0.0000 -0.0000 15.5523 -20.6260 9.4248
0.8306 17.2755 -1.4209 8.2626 -17.9198 27.5321 0.0000 0.0000 0.0000 -28.6090 -4.1027 -54.5008 3.8808 12.0001 35.7323 0.2276 0.3511 -9.1442 0.9500 -6.2072 -17.3868 0.0000 0.0000 0.0000 -1.5739 15.6333 -61.3343 -4.6385 -12.9648 39.2368 -0.0263 1.2352 -2.8848 -0.8796 5.9788 -16.7230 3.7109 -2.7373 15.8637 7.8639 -3.3312 11.2410 6.7320 -1.8414 3.4900 -1.5787 9.2985 11.5500 -3.2363 12.0208 13.2035 -0.9242 5.7382 2.4538 -0.0000 0.0000 0.0000 -179.2532 -80.8202 -172.6623 16.3790 -26.0319 -3.8108 -0.0000 -0.0000 5.4849 -2.8005 20.5086 -0.9818 -7.1250 0.0000 -0.0000 -29.8606 48.0152 -2.4257 -0.0000 0.0000 0.0000 69.5145 46.8314 24.2757 -18.3607 28.6166 -4.7207 0.0000 0.0000 31.2155 -4.9099 9.3883 -0.8028 7.1250 -0.0000 -0.0000 15.6753 -20.6955 9.4796
